999
"DXF R12 Output" (www.mydxf.blogspot.com)
 0 
SECTION
 2 
HEADER
 9 
$ACADVER
 1 
AC1009
 9 
$EXTMIN
 10 
 0 
 20 
 0 
 9 
$EXTMAX
 10 
 8.5 
 20 
 11 
 0 
ENDSEC
 0 
SECTION
 2 
ENTITIES
0
LINE
8
Layer 1
10
0.846666
20
317.647000
11
-0.846666
21
315.953000
0
LINE
8
Layer 1
10
0.000000
20
318.211000
11
0.000000
21
315.389000
0
LINE
8
Layer 1
10
2.257780
20
315.671000
11
1.128890
21
314.542110
0
LINE
8
Layer 1
10
1.693330
20
316.236000
11
0.564440
21
315.107110
0
LINE
8
Layer 1
10
1.128890
20
316.800000
11
0.000000
21
315.671110
0
LINE
8
0
10
130.514000
20
262.408000
11
130.514000
21
224.541000
0
LINE
8
0
10
130.514000
20
224.541000
11
105.981000
21
224.541000
0
LINE
8
0
10
105.981000
20
224.541000
11
104.914000
21
224.541000
0
LINE
8
0
10
104.914000
20
224.541000
11
81.447800
21
224.541000
0
LINE
8
0
10
81.447800
20
224.541000
11
81.447800
21
262.408000
0
LINE
8
0
10
81.447800
20
262.408000
11
94.247800
21
262.408000
0
LINE
8
0
10
94.247800
20
262.408000
11
94.247800
21
275.208000
0
LINE
8
0
10
94.247800
20
275.208000
11
104.914000
21
275.208000
0
LINE
8
0
10
104.914000
20
275.208000
11
105.981000
21
275.208000
0
LINE
8
0
10
105.981000
20
275.208000
11
117.714000
21
275.208000
0
LINE
8
0
10
117.714000
20
275.208000
11
117.714000
21
262.408000
0
LINE
8
0
10
117.714000
20
262.408000
11
130.514000
21
262.408000
0
LINE
8
0
10
103.848000
20
274.141000
11
97.981100
21
274.141000
0
LINE
8
0
10
97.981100
20
274.141000
11
95.314440
21
271.474340
0
LINE
8
0
10
95.314440
20
271.474340
11
95.314500
21
261.341000
0
LINE
8
0
10
95.314500
20
261.341000
11
84.647800
21
261.341000
0
LINE
8
0
10
84.647800
20
261.341000
11
82.514470
21
259.207670
0
LINE
8
0
10
82.514470
20
259.207670
11
82.514500
21
228.274000
0
LINE
8
0
10
82.514500
20
228.274000
11
85.181160
21
225.607340
0
LINE
8
0
10
85.181160
20
225.607340
11
99.581100
21
225.608000
0
LINE
8
0
10
99.581100
20
225.608000
11
103.847760
21
229.874660
0
LINE
8
0
10
103.847760
20
229.874660
11
103.848000
21
274.141000
0
LINE
8
0
10
88.114500
20
244.808000
11
92.114500
21
244.808000
0
LINE
8
0
10
92.114500
20
244.808000
11
92.114500
21
248.808000
0
LINE
8
0
10
92.114500
20
248.808000
11
94.781100
21
248.808000
0
LINE
8
0
10
94.781100
20
248.808000
11
94.781100
21
244.808000
0
LINE
8
0
10
94.781100
20
244.808000
11
98.781100
21
244.808000
0
LINE
8
0
10
98.781100
20
244.808000
11
98.781100
21
242.141000
0
LINE
8
0
10
98.781100
20
242.141000
11
94.781100
21
242.141000
0
LINE
8
0
10
94.781100
20
242.141000
11
94.781100
21
238.141000
0
LINE
8
0
10
94.781100
20
238.141000
11
92.114500
21
238.141000
0
LINE
8
0
10
92.114500
20
238.141000
11
92.114500
21
242.141000
0
LINE
8
0
10
92.114500
20
242.141000
11
88.114500
21
242.141000
0
LINE
8
0
10
88.114500
20
242.141000
11
88.114500
21
244.808000
0
LINE
8
0
10
94.247800
20
238.674000
11
92.647800
21
238.674000
0
LINE
8
0
10
92.647800
20
238.674000
11
92.647800
21
242.674000
0
LINE
8
0
10
92.647800
20
242.674000
11
88.647800
21
242.674000
0
LINE
8
0
10
88.647800
20
242.674000
11
88.647800
21
244.274000
0
LINE
8
0
10
88.647800
20
244.274000
11
92.647800
21
244.274000
0
LINE
8
0
10
92.647800
20
244.274000
11
92.647800
21
248.274000
0
LINE
8
0
10
92.647800
20
248.274000
11
94.247800
21
248.274000
0
LINE
8
0
10
94.247800
20
248.274000
11
94.247800
21
244.274000
0
LINE
8
0
10
94.247800
20
244.274000
11
98.247800
21
244.274000
0
LINE
8
0
10
98.247800
20
244.274000
11
98.247800
21
242.674000
0
LINE
8
0
10
98.247800
20
242.674000
11
94.247800
21
242.674000
0
LINE
8
0
10
94.247800
20
242.674000
11
94.247800
21
238.674000
0
LINE
8
0
10
108.114000
20
274.141000
11
113.981000
21
274.141000
0
LINE
8
0
10
113.981000
20
274.141000
11
116.647660
21
271.474340
0
LINE
8
0
10
116.647660
20
271.474340
11
116.648000
21
261.341000
0
LINE
8
0
10
116.648000
20
261.341000
11
127.314000
21
261.341000
0
LINE
8
0
10
127.314000
20
261.341000
11
129.447330
21
259.207670
0
LINE
8
0
10
129.447330
20
259.207670
11
129.448000
21
228.274000
0
LINE
8
0
10
129.448000
20
228.274000
11
126.781340
21
225.607340
0
LINE
8
0
10
126.781340
20
225.607340
11
112.381000
21
225.608000
0
LINE
8
0
10
112.381000
20
225.608000
11
108.114340
21
229.874660
0
LINE
8
0
10
108.114340
20
229.874660
11
108.114000
21
274.141000
0
LINE
8
0
10
127.314000
20
228.808000
11
127.314000
21
234.141000
0
LINE
8
0
10
127.314000
20
234.141000
11
126.248000
21
234.141000
0
LINE
8
0
10
126.248000
20
234.141000
11
126.248000
21
228.808000
0
LINE
8
0
10
126.248000
20
228.808000
11
127.314000
21
228.808000
0
LINE
8
0
10
127.314000
20
252.808000
11
127.314000
21
259.391000
0
LINE
8
0
10
127.314000
20
259.391000
11
126.248000
21
259.391000
0
LINE
8
0
10
126.248000
20
259.391000
11
126.248000
21
252.808000
0
LINE
8
0
10
126.248000
20
252.808000
11
127.314000
21
252.808000
0
LINE
8
0
10
117.181000
20
244.808000
11
117.234000
21
244.808000
0
LINE
8
0
10
117.234000
20
244.808000
11
121.714000
21
244.808000
0
LINE
8
0
10
121.714000
20
244.808000
11
121.714000
21
242.141000
0
LINE
8
0
10
121.714000
20
242.141000
11
117.181000
21
242.141000
0
LINE
8
0
10
117.181000
20
242.141000
11
112.648000
21
242.141000
0
LINE
8
0
10
112.648000
20
242.141000
11
112.648000
21
244.808000
0
LINE
8
0
10
112.648000
20
244.808000
11
117.181000
21
244.808000
0
LINE
8
0
10
85.714500
20
228.808000
11
84.647800
21
228.808000
0
LINE
8
0
10
84.647800
20
228.808000
11
84.647800
21
234.141000
0
LINE
8
0
10
84.647800
20
234.141000
11
85.714500
21
234.141000
0
LINE
8
0
10
85.714500
20
234.141000
11
85.714500
21
228.808000
0
LINE
8
0
10
85.714500
20
258.944000
11
85.714500
21
253.300000
0
LINE
8
0
10
85.714500
20
253.300000
11
84.647800
21
253.300000
0
LINE
8
0
10
84.647800
20
253.300000
11
84.647800
21
258.944000
0
LINE
8
0
10
84.647800
20
258.944000
11
85.714500
21
258.944000
0
LINE
8
0
10
113.181000
20
242.674000
11
113.181000
21
244.274000
0
LINE
8
0
10
113.181000
20
244.274000
11
121.181000
21
244.274000
0
LINE
8
0
10
121.181000
20
244.274000
11
121.181000
21
242.674000
0
LINE
8
0
10
121.181000
20
242.674000
11
113.181000
21
242.674000
 0 
ENDSEC
 0 
EOF